<?xml version="1.0" standalone="no"?>
<!DOCTYPE svg PUBLIC "-//W3C//DTD SVG 20010904//EN"
 "http://www.w3.org/TR/2001/REC-SVG-20010904/DTD/svg10.dtd">
<svg version="1.0" xmlns="http://www.w3.org/2000/svg"
 width="301.000000pt" height="167.000000pt" viewBox="0 0 301.000000 167.000000"
 preserveAspectRatio="xMidYMid meet">

<g transform="translate(0.000000,167.000000) scale(0.100000,-0.100000)"
fill="#000000" stroke="none">
<path d="M173 1057 l-113 -72 0 -73 c0 -85 -14 -87 142 14 l98 64 0 70 c0 38
-3 70 -7 69 -5 0 -59 -32 -120 -72z"/>
<path d="M413 1058 l-113 -72 0 -74 0 -74 38 23 c20 13 74 47 120 76 l82 53 0
70 c0 38 -3 70 -7 70 -5 -1 -59 -33 -120 -72z"/>
<path d="M653 1058 l-113 -72 0 -74 0 -74 38 23 c20 13 74 47 120 76 l82 53 0
70 c0 39 -3 70 -7 70 -5 0 -59 -33 -120 -72z"/>
<path d="M2614 1021 c-2 -2 -4 -77 -4 -167 l0 -162 30 -4 30 -5 0 171 0 171
-26 0 c-14 0 -28 -2 -30 -4z"/>
<path d="M2250 973 c0 -30 3 -33 30 -33 27 0 30 3 30 33 0 29 -3 32 -30 32
-27 0 -30 -3 -30 -32z"/>
<path d="M2100 950 c0 -36 -2 -40 -25 -40 -20 0 -25 -5 -25 -25 0 -20 5 -25
25 -25 25 0 25 -1 25 -88 l0 -89 30 5 30 4 0 84 c0 83 0 84 25 84 20 0 25 5
25 25 0 20 -5 25 -25 25 -22 0 -25 4 -25 40 0 38 -2 40 -30 40 -28 0 -30 -2
-30 -40z"/>
<path d="M1018 906 c-21 -8 -38 -10 -38 -5 0 5 -11 9 -25 9 l-25 0 0 -113 0
-113 28 2 c27 1 27 1 32 84 4 72 8 84 25 90 22 8 46 2 57 -14 4 -6 8 -45 8
-87 l0 -76 30 5 30 4 0 79 c0 73 2 80 23 88 24 9 48 4 59 -13 4 -6 8 -45 8
-87 l0 -76 31 5 31 5 -4 88 c-2 76 -6 92 -25 111 -25 25 -93 29 -119 7 -11 -9
-22 -8 -48 5 -40 19 -32 19 -78 2z"/>
<path d="M1440 910 c-14 -4 -42 -5 -62 -2 l-38 5 0 -167 0 -166 30 0 c30 0 30
0 30 60 0 59 0 60 24 49 79 -36 166 48 145 140 -13 59 -72 96 -129 81z m58
-63 c8 -6 12 -26 10 -51 -4 -51 -40 -77 -82 -58 -23 10 -26 18 -26 60 0 41 4
51 23 60 23 11 53 7 75 -11z"/>
<path d="M1681 907 c-48 -17 -76 -58 -76 -114 0 -39 5 -49 37 -79 39 -36 81
-44 119 -24 10 6 19 7 19 2 0 -5 14 -7 30 -4 l30 4 0 110 0 109 -42 -3 c-24
-1 -52 1 -63 4 -11 4 -35 1 -54 -5z m77 -53 c30 -21 32 -98 3 -114 -32 -17
-58 -12 -80 16 -27 35 -26 59 4 89 28 29 42 31 73 9z"/>
<path d="M1990 911 c-14 -4 -42 -6 -62 -3 l-38 5 0 -115 0 -114 28 1 c27 0 27
1 32 80 l5 80 33 10 c26 7 32 14 32 37 0 15 -1 28 -2 27 -2 -1 -14 -4 -28 -8z"/>
<path d="M2433 909 c-44 -13 -83 -62 -83 -105 0 -104 106 -157 195 -98 l27 18
-21 17 c-20 17 -23 17 -51 1 -27 -15 -32 -16 -57 -2 -47 26 -44 101 5 118 21
7 35 6 55 -5 24 -12 30 -12 48 0 20 15 20 15 -7 36 -15 11 -32 21 -40 21 -7 0
-18 2 -26 4 -7 2 -27 0 -45 -5z"/>
<path d="M2785 906 c-43 -19 -66 -49 -72 -94 -14 -104 100 -167 192 -106 l27
18 -21 17 c-20 17 -23 17 -51 1 -27 -15 -32 -15 -57 -2 -53 30 -40 40 51 40
l86 0 0 33 c0 42 -24 75 -66 93 -40 17 -51 17 -89 0z m76 -46 c38 -21 23 -40
-31 -40 -37 0 -50 4 -50 15 0 28 47 43 81 25z"/>
<path d="M2250 797 l0 -114 30 5 30 4 0 109 0 109 -30 0 -30 0 0 -113z"/>
<path d="M173 755 l-113 -74 0 -71 c0 -38 2 -70 5 -70 3 0 55 31 116 70 60 39
112 70 114 70 3 0 5 -31 5 -70 0 -38 2 -70 5 -70 2 0 54 32 115 70 61 39 113
70 115 70 3 0 5 -32 5 -71 0 -39 4 -69 8 -67 5 2 59 35 120 73 l112 70 0 73
c0 39 -2 72 -5 72 -2 0 -54 -31 -114 -70 -61 -38 -113 -70 -116 -70 -3 0 -5
32 -5 70 0 39 -2 70 -5 70 -2 0 -50 -30 -107 -66 -56 -36 -108 -68 -115 -71
-10 -4 -13 11 -13 66 0 39 -3 71 -7 70 -5 0 -59 -34 -120 -74z"/>
</g>
</svg>
